<svg width="13" height="13" viewBox="0 0 13 13" fill="none" xmlns="http://www.w3.org/2000/svg">
<path d="M2.03125 6.5H8.9375V2.4375H2.03125V6.5ZM3.04688 3.45312H7.92188V5.48438H3.04688V3.45312ZM2.03125 10.5625H8.9375V9.54688H2.03125V10.5625ZM2.03125 8.53125H8.9375V7.51562H2.03125V8.53125ZM11.4766 7.51562H10.9688V1.92969C10.9688 1.08966 10.2853 0.40625 9.44531 0.40625H1.52344C0.683414 0.40625 0 1.08966 0 1.92969V11.0703C0 11.9103 0.683414 12.5938 1.52344 12.5938H11.4766C12.3166 12.5937 13 11.9103 13 11.0703V9.03906C13 8.19904 12.3166 7.51562 11.4766 7.51562ZM1.52344 11.5781C1.24343 11.5781 1.01562 11.3503 1.01562 11.0703V1.92969C1.01562 1.64968 1.24343 1.42188 1.52344 1.42188H9.44531C9.72532 1.42188 9.95312 1.64968 9.95312 1.92969V11.0703C9.95312 11.2483 9.9841 11.4192 10.0405 11.5781H1.52344ZM11.9844 11.0703C11.9844 11.3503 11.7566 11.5781 11.4766 11.5781C11.1966 11.5781 10.9688 11.3503 10.9688 11.0703V8.53125H11.4766C11.7566 8.53125 11.9844 8.75906 11.9844 9.03906V11.0703Z" fill="#677789"/>
</svg>
